<?xml version="1.0" encoding="UTF-8" standalone="no"?>
<svg
   xmlns:dc="http://purl.org/dc/elements/1.1/"
   xmlns:cc="http://creativecommons.org/ns#"
   xmlns:rdf="http://www.w3.org/1999/02/22-rdf-syntax-ns#"
   xmlns:svg="http://www.w3.org/2000/svg"
   xmlns="http://www.w3.org/2000/svg"
   xmlns:sodipodi="http://sodipodi.sourceforge.net/DTD/sodipodi-0.dtd"
   xmlns:inkscape="http://www.inkscape.org/namespaces/inkscape"
   version="1.1"
   viewBox="90 298 1009.12 99.43"
   id="svg98"
   sodipodi:docname="Osborne_logo-simplified.svg"
   width="1009.12"
   height="99.43"
   inkscape:version="0.92.3 (2405546, 2018-03-11)">
  <metadata
     id="metadata104">
    <rdf:RDF>
      <cc:Work
         rdf:about="">
        <dc:format>image/svg+xml</dc:format>
        <dc:type
           rdf:resource="http://purl.org/dc/dcmitype/StillImage" />
      </cc:Work>
    </rdf:RDF>
  </metadata>
  <defs
     id="defs102" />
  <sodipodi:namedview
     pagecolor="#ffffff"
     bordercolor="#666666"
     borderopacity="1"
     objecttolerance="10"
     gridtolerance="10"
     guidetolerance="10"
     inkscape:pageopacity="0"
     inkscape:pageshadow="2"
     inkscape:window-width="1536"
     inkscape:window-height="801"
     id="namedview100"
     showgrid="false"
     inkscape:zoom="0.78752285"
     inkscape:cx="475.27842"
     inkscape:cy="-32.839784"
     inkscape:window-x="-8"
     inkscape:window-y="-8"
     inkscape:window-maximized="1"
     inkscape:current-layer="svg98" />
  <path
     style="display:inline"
     d="M 118.90039 0 C 108.05479 0 100.30854 0.11488625 94.238281 0.41015625 L 0 0.41015625 L 0 2.4101562 L 78.123047 2.4101562 C 77.451567 2.5753462 76.773191 2.7328219 76.119141 2.9199219 C 69.903933 4.7475885 65.392873 7.3352617 62.138672 11.119141 L 180.66406 11.119141 C 176.66178 6.0573789 170.71604 3.0022419 162.40039 1.4707031 C 155.54039 0.30070314 146.93039 0.01 118.90039 0 z M 533.40039 0 C 507.70039 0 498.79914 0.57992188 490.61914 2.9199219 C 479.66914 6.1399219 473.96922 11.680781 471.19922 22.050781 C 469.44922 28.620781 469.16016 32.710547 469.16016 49.060547 C 469.16016 70.370547 470.03008 77.529688 473.83008 84.679688 C 477.48008 91.829687 483.76055 95.920313 494.56055 97.820312 C 500.40055 98.990313 512.22945 99.429688 535.43945 99.429688 C 544.92945 99.429688 557.91969 99.280234 563.17969 98.990234 C 577.33969 98.410234 585.51937 96.069375 591.35938 91.109375 C 599.67938 84.239375 602.16016 74.76 602.16016 51.25 C 602.16016 39.43 601.8593 31.539609 601.2793 27.599609 C 599.2393 11.979609 591.94039 4.2407031 576.90039 1.4707031 C 570.03039 0.30070312 561.42039 0.01 533.40039 0 z M 258.19922 0.3203125 C 236.87922 0.3203125 225.48937 1.0498437 217.60938 3.0898438 C 203.58937 6.4398438 198.63086 13.890156 198.63086 31.410156 C 198.63086 44.690156 201.83961 52.430078 208.84961 56.080078 C 215.12961 59.290078 222.5693 60.310547 240.5293 60.310547 L 267.39062 60.310547 C 282.72062 60.460547 282.71969 60.460469 285.92969 61.480469 C 288.98969 62.500469 290.89062 65.419375 290.89062 69.359375 C 290.89062 77.389375 286.80023 78.410156 252.49023 78.410156 C 243.14023 78.410156 234.82086 77.829219 232.63086 76.949219 C 229.12086 75.629219 228.38961 74.030547 228.09961 67.310547 L 228.09961 67.330078 L 199.08008 67.330078 C 198.93008 69.380078 198.92969 71.270391 198.92969 72.150391 C 198.92969 83.680391 201.99047 91.130781 207.98047 94.050781 C 216.59047 98.430781 224.02977 99.160156 257.75977 99.160156 C 278.92977 99.160156 293.37969 98.289688 300.67969 96.679688 C 314.97969 93.609687 320.24023 85.729531 320.24023 67.769531 C 320.24023 48.199531 312.94039 40.030391 294.40039 39.150391 C 289.44039 38.860391 276.29992 38.419922 273.66992 38.419922 L 246.08008 38.419922 C 236.45008 38.269922 235.85938 38.129453 234.10938 37.689453 C 229.86938 36.669453 227.83008 34.039219 227.83008 29.949219 C 227.83008 24.399219 230.45984 22.349531 238.33984 21.769531 C 243.00984 21.479531 255.70922 21.189453 265.19922 21.189453 C 284.32922 21.189453 287.25 22.360078 287.25 30.830078 L 316.16016 30.830078 C 316.16016 16.230078 313.97 10.250703 307.25 5.7207031 C 300.25 1.2007031 292.35922 0.3203125 258.19922 0.3203125 z M 332.92969 1.0292969 L 332.92969 98.410156 L 424.91016 98.410156 C 436.15016 98.410156 442.56961 97.390781 447.09961 95.050781 C 454.83961 90.960781 458.33984 83.220937 458.33984 70.960938 C 458.33984 56.800938 453.96031 51.099141 440.82031 48.619141 C 450.02031 46.869141 454.40039 40.299609 454.40039 27.599609 C 454.40039 15.189609 451.18078 8.6192969 443.30078 4.5292969 C 438.19078 2.0492969 432.06031 1.0292969 420.82031 1.0292969 L 332.92969 1.0292969 z M 615.30078 1.0292969 L 615.30078 98.410156 L 644.78906 98.410156 L 644.78906 73.880859 L 690.18945 73.880859 C 703.46945 73.590859 706.38906 75.779063 706.53906 86.289062 L 706.53906 98.410156 L 736.61914 98.410156 L 736.61914 83.080078 C 736.90914 68.330078 733.26063 63.219688 721.14062 61.179688 C 733.55062 58.409688 737.92969 51.250391 737.92969 33.150391 C 737.92969 20.010391 735.29938 11.690156 729.60938 7.1601562 C 724.05938 2.4901562 716.47023 1.0292969 699.24023 1.0292969 L 615.30078 1.0292969 z M 751.66016 1.0292969 L 751.66016 98.410156 L 780.13086 98.410156 L 779.40039 25.119141 L 837.50977 98.410156 L 885.09961 98.410156 L 885.09961 1.0292969 L 857.07031 1.0292969 L 857.80078 75.050781 L 798.82031 1.0292969 L 751.66016 1.0292969 z M 900.14062 1.0292969 L 900.14062 98.410156 L 1009.1191 98.410156 L 1009.1191 76.369141 L 929.33984 76.369141 L 929.33984 59.140625 L 1009.1191 59.140625 L 1009.1191 39.869141 L 929.33984 39.869141 L 929.33984 23.080078 L 1009.1191 23.080078 L 1009.1191 1.0292969 L 900.14062 1.0292969 z M 0 13.119141 L 0 15.119141 L 59.375 15.119141 C 58.27488 17.152121 57.394029 19.449631 56.699219 22.050781 C 56.535563 22.665195 56.389767 23.256171 56.253906 23.839844 L 114.80273 23.839844 C 116.7859 23.821384 118.90245 23.810547 121.23047 23.810547 C 124.15264 23.810547 126.62616 23.823494 129.10352 23.839844 L 186.13672 23.839844 C 185.27291 19.638715 183.95066 16.078306 182.08203 13.119141 L 60.603516 13.119141 L 0 13.119141 z M 361.84961 22.640625 L 410.90039 22.640625 C 416.59039 22.640625 418.04922 22.789141 419.94922 23.369141 C 423.15922 24.539141 425.06055 27.460391 425.06055 31.400391 C 425.06055 34.760391 423.59977 37.389219 421.25977 38.699219 C 419.35977 39.579219 417.30914 39.869141 411.61914 39.869141 L 361.84961 39.869141 L 361.84961 22.640625 z M 535.7207 23.810547 C 572.2207 23.810547 572.66016 24.100859 572.66016 48.630859 C 572.66016 61.620859 571.93016 66.589844 569.16016 70.089844 C 565.81016 74.759844 560.55 75.640625 535 75.640625 C 512.66 75.640625 507.84039 75.049844 503.90039 71.839844 C 500.25039 68.769844 499.08008 63.520938 499.08008 49.210938 C 499.08008 35.190938 500.24945 30.380547 504.18945 27.310547 C 507.98945 24.540547 513.9707 23.810547 535.7207 23.810547 z M 644.78906 24.980469 L 692.08984 24.980469 C 700.99984 24.980469 703.47992 25.41 705.66992 27.75 C 707.56992 29.79 708.15039 32.419219 708.15039 38.699219 C 708.15039 48.339219 705.38031 50.089844 691.07031 50.089844 L 644.78906 50.089844 L 644.78906 24.980469 z M 0 25.839844 L 0 27.839844 L 55.480469 27.839844 C 55.126063 30.202935 54.919976 32.907083 54.802734 36.550781 L 85.220703 36.550781 C 85.863061 32.139892 87.059013 29.659814 89.074219 27.839844 L 154.41016 27.839844 C 156.45383 29.715582 157.37511 32.508747 157.79688 36.550781 L 187.43945 36.550781 C 187.29173 32.572526 187.07104 29.581466 186.7793 27.599609 C 186.7002 26.99428 186.5989 26.421671 186.50391 25.839844 L 151.02148 25.839844 L 92.482422 25.839844 L 55.824219 25.839844 L 0 25.839844 z M 0 38.550781 L 0 40.550781 L 54.710938 40.550781 C 54.676738 42.993271 54.660156 45.720407 54.660156 49.060547 C 54.660156 49.136227 54.661909 49.196341 54.662109 49.269531 L 84.589844 49.269531 C 84.589818 49.248571 84.589844 49.232087 84.589844 49.210938 C 84.589844 45.812056 84.661944 42.973501 84.822266 40.550781 L 158.08008 40.550781 C 158.16248 42.899761 158.16992 45.576459 158.16992 48.630859 C 158.16992 48.860916 158.16506 49.052151 158.16406 49.269531 L 187.64648 49.269531 C 187.63328 45.176459 187.58048 41.618861 187.49023 38.550781 L 157.96484 38.550781 L 84.980469 38.550781 L 54.742188 38.550781 L 0 38.550781 z M 0 51.269531 L 0 53.269531 L 54.685547 53.269531 C 54.708307 56.537947 54.771887 59.377433 54.863281 61.980469 L 85.183594 61.980469 C 84.881981 59.624891 84.707444 56.765539 84.636719 53.269531 L 158.12891 53.269531 C 158.06031 56.859542 157.89445 59.683928 157.58984 61.980469 L 187.42578 61.980469 C 187.583 58.762407 187.65992 55.229421 187.66016 51.269531 L 158.14844 51.269531 L 84.613281 51.269531 L 54.673828 51.269531 L 0 51.269531 z M 361.83984 58.990234 L 414.10938 58.990234 C 420.67937 58.990234 421.84961 59.140703 423.59961 59.720703 C 426.80961 60.890703 428.56055 63.809062 428.56055 68.039062 C 428.56055 72.129062 426.81062 75.050313 423.89062 76.070312 C 421.99062 76.650313 420.82984 76.800781 414.83984 76.800781 L 361.83984 76.800781 L 361.83984 58.990234 z M 0 63.980469 L 0 65.980469 L 55.037109 65.980469 C 55.240036 69.395447 55.54013 72.244472 55.972656 74.699219 L 96.378906 74.699219 C 92.993173 74.126751 91.115893 73.229543 89.410156 71.839844 C 87.812936 70.496434 86.690804 68.735259 85.933594 65.980469 L 156.76562 65.980469 C 156.25138 67.652969 155.57003 68.952534 154.66992 70.089844 C 152.93221 72.512265 150.65125 73.909993 145.32031 74.699219 L 186.01172 74.699219 C 186.6339 71.639767 187.05182 68.100684 187.3125 63.980469 L 157.26562 63.980469 L 85.488281 63.980469 L 54.929688 63.980469 L 0 63.980469 z M 0 76.699219 L 0 78.699219 L 56.886719 78.699219 C 57.521549 80.867709 58.319628 82.778458 59.330078 84.679688 C 59.823776 85.6468 60.371705 86.553285 60.966797 87.410156 L 180.51953 87.410156 C 182.80341 84.570511 184.4339 81.16103 185.55078 76.699219 L 56.369141 76.699219 L 0 76.699219 z M 0 89.410156 L 0 91.410156 L 64.568359 91.410156 C 68.256059 94.558486 73.262457 96.624353 80.060547 97.820312 C 85.900547 98.990313 97.729456 99.429688 120.93945 99.429688 C 130.42945 99.429688 143.41969 99.280234 148.67969 98.990234 C 162.83969 98.410234 171.01936 96.069385 176.85938 91.109375 C 177.51959 90.564224 178.1304 89.993875 178.71875 89.410156 L 62.529297 89.410156 L 0 89.410156 z "
     transform="translate(90,298)"
     id="path8" />
</svg>
