<?xml version="1.0" encoding="UTF-8" standalone="no"?>
<svg
   xmlns:dc="http://purl.org/dc/elements/1.1/"
   xmlns:cc="http://creativecommons.org/ns#"
   xmlns:rdf="http://www.w3.org/1999/02/22-rdf-syntax-ns#"
   xmlns:svg="http://www.w3.org/2000/svg"
   xmlns="http://www.w3.org/2000/svg"
   xmlns:sodipodi="http://sodipodi.sourceforge.net/DTD/sodipodi-0.dtd"
   xmlns:inkscape="http://www.inkscape.org/namespaces/inkscape"
   version="1.1"
   viewBox="90 298 64.251968 6.3308398"
   id="svg98"
   sodipodi:docname="Osborne_logo-simplified.svg"
   width="17mm"
   height="1.6750348mm"
   inkscape:version="0.92.3 (2405546, 2018-03-11)">
  <metadata
     id="metadata104">
    <rdf:RDF>
      <cc:Work
         rdf:about="">
        <dc:format>image/svg+xml</dc:format>
        <dc:type
           rdf:resource="http://purl.org/dc/dcmitype/StillImage" />
        <dc:title></dc:title>
      </cc:Work>
    </rdf:RDF>
  </metadata>
  <defs
     id="defs102" />
  <sodipodi:namedview
     pagecolor="#ffffff"
     bordercolor="#666666"
     borderopacity="1"
     objecttolerance="10"
     gridtolerance="10"
     guidetolerance="10"
     inkscape:pageopacity="0"
     inkscape:pageshadow="2"
     inkscape:window-width="1536"
     inkscape:window-height="801"
     id="namedview100"
     showgrid="false"
     inkscape:zoom="8.9098039"
     inkscape:cx="20.978884"
     inkscape:cy="-6.59858"
     inkscape:window-x="-8"
     inkscape:window-y="-8"
     inkscape:window-maximized="1"
     inkscape:current-layer="svg98"
     units="mm" />
  <path
     style="display:inline;stroke-width:0.06367135"
     d="m 97.570548,298.00004 c -0.690554,0 -1.183768,0.007 -1.57027,0.0261 H 90 v 0.12734 h 4.974199 c -0.04275,0.0102 -0.08594,0.0205 -0.127591,0.0324 -0.39573,0.11637 -0.682955,0.28112 -0.890155,0.52206 h 7.546667 c -0.25483,-0.3223 -0.6334,-0.51682 -1.16287,-0.61434 -0.436784,-0.0745 -0.984994,-0.093 -2.769702,-0.0936 z m 26.391772,0 c -1.63635,0 -2.20311,0.0369 -2.72393,0.18591 -0.69721,0.20502 -1.06014,0.55782 -1.2365,1.21809 -0.11141,0.41832 -0.12983,0.67872 -0.12983,1.71975 0,1.35683 0.0554,1.81266 0.29734,2.26791 0.2324,0.45525 0.63229,0.71571 1.31994,0.83669 0.37184,0.0745 1.125,0.10245 2.60281,0.10245 0.60424,0 1.43135,-0.009 1.76626,-0.028 0.90159,-0.0369 1.4224,-0.18598 1.79423,-0.5018 0.52976,-0.43742 0.68771,-1.04098 0.68771,-2.53789 0,-0.75259 -0.0191,-1.25499 -0.0561,-1.50585 -0.12989,-0.99455 -0.59462,-1.4873 -1.55223,-1.66367 -0.43743,-0.0745 -0.98564,-0.0931 -2.76971,-0.0936 z m -17.52242,0.0204 c -1.35748,0 -2.08269,0.0465 -2.58442,0.17633 -0.89267,0.21331 -1.20839,0.68768 -1.20839,1.80321 0,0.84555 0.20431,1.33836 0.65065,1.57076 0.39985,0.20439 0.87355,0.26936 2.01708,0.26936 h 1.7103 c 0.97608,0.009 0.97602,0.009 1.18041,0.0745 0.19483,0.0649 0.31587,0.25081 0.31587,0.50167 0,0.51128 -0.26044,0.57627 -2.44501,0.57627 -0.59533,0 -1.12503,-0.0369 -1.26447,-0.0931 -0.22348,-0.0841 -0.27005,-0.18583 -0.28851,-0.61371 v 10e-4 h -1.84771 c -0.009,0.13053 -0.009,0.25089 -0.009,0.30692 0,0.73413 0.19489,1.20851 0.57628,1.39442 0.5482,0.27889 1.02188,0.32532 3.16951,0.32532 1.34792,0 2.26797,-0.0554 2.73277,-0.15793 0.9105,-0.19547 1.24545,-0.69721 1.24545,-1.84074 0,-1.24606 -0.46479,-1.76619 -1.64526,-1.82222 -0.31581,-0.0185 -1.15249,-0.0465 -1.31994,-0.0465 h -1.75668 c -0.61315,-0.009 -0.65077,-0.0185 -0.7622,-0.0465 -0.26996,-0.0649 -0.3998,-0.23241 -0.3998,-0.49283 0,-0.35337 0.16744,-0.48387 0.66916,-0.52081 0.29736,-0.0185 1.10594,-0.0369 1.71018,-0.0369 1.21804,0 1.40401,0.0746 1.40401,0.61384 h 1.84075 c 0,-0.92961 -0.13946,-1.31031 -0.56733,-1.59875 -0.4457,-0.2878 -0.94811,-0.34385 -3.12312,-0.34385 z m 4.75818,0.0451 v 6.20037 h 5.85653 c 0.71566,0 1.12439,-0.0649 1.41282,-0.21389 0.49282,-0.26042 0.71569,-0.75323 0.71569,-1.53384 0,-0.90158 -0.27886,-1.26462 -1.11549,-1.42253 0.58577,-0.11141 0.86466,-0.52972 0.86466,-1.33834 0,-0.79016 -0.205,-1.20851 -0.70673,-1.46893 -0.32536,-0.15789 -0.71569,-0.22284 -1.43136,-0.22284 z m 17.97896,0 v 6.20037 h 1.87754 v -1.56181 h 2.89072 c 0.84554,-0.0185 1.03144,0.12086 1.041,0.79005 v 0.77176 h 1.91523 v -0.97609 c 0.0185,-0.93915 -0.21384,-1.26453 -0.98554,-1.39442 0.79016,-0.17637 1.06899,-0.63222 1.06899,-1.78467 0,-0.83664 -0.16748,-1.3664 -0.52977,-1.65483 -0.35337,-0.29735 -0.83658,-0.39036 -1.93365,-0.39036 z m 8.68218,0 v 6.20037 h 1.81277 l -0.0465,-4.66654 3.6999,4.66654 h 3.0301 v -6.20037 h -1.78466 l 0.0465,4.71304 -3.75537,-4.71304 z m 9.45395,0 v 6.20037 h 6.9388 v -1.40338 h -5.07965 v -1.09697 h 5.07965 v -1.22703 h -5.07965 v -1.06899 h 5.07965 v -1.404 z M 90,298.83535 v 0.12734 h 3.780486 c -0.07005,0.12944 -0.126131,0.27573 -0.17037,0.44135 -0.01043,0.0391 -0.0197,0.0767 -0.02836,0.11391 h 3.727882 c 0.126272,-10e-4 0.261035,-0.002 0.409263,-0.002 0.186058,0 0.343551,8.2e-4 0.501288,0.002 h 3.631381 c -0.055,-0.26749 -0.13918,-0.49419 -0.25816,-0.6826 h -7.734708 z m 23.03946,0.60624 h 3.12312 c 0.36229,0 0.45517,0.009 0.57615,0.0464 0.20439,0.0745 0.32545,0.26049 0.32545,0.51136 0,0.21394 -0.093,0.38131 -0.242,0.46472 -0.12098,0.056 -0.25154,0.0745 -0.61383,0.0745 h -3.16889 z m 11.0706,0.0745 c 2.324,0 2.35198,0.0185 2.35198,1.58035 0,0.82708 -0.0465,1.14346 -0.22284,1.36631 -0.21331,0.29735 -0.54823,0.35343 -2.17503,0.35343 -1.42242,0 -1.72928,-0.0376 -1.98016,-0.242 -0.23239,-0.19547 -0.30691,-0.52968 -0.30691,-1.44081 0,-0.89268 0.0745,-1.19896 0.32532,-1.39443 0.24195,-0.17637 0.62279,-0.22285 2.00764,-0.22285 z m 6.94452,0.0745 h 3.01171 c 0.56731,0 0.72522,0.0273 0.86467,0.17635 0.12097,0.12989 0.15793,0.2973 0.15793,0.69715 0,0.61379 -0.17637,0.72525 -1.08752,0.72525 h -2.94679 z M 90,299.64529 v 0.12734 h 3.532516 c -0.02256,0.15046 -0.03569,0.32265 -0.04316,0.55464 h 1.936753 c 0.0409,-0.28085 0.117048,-0.43876 0.245359,-0.55464 h 4.160027 c 0.130124,0.11943 0.188785,0.29728 0.215645,0.55464 h 1.88738 c -0.009,-0.2533 -0.0235,-0.44374 -0.042,-0.56993 -0.005,-0.0385 -0.0115,-0.075 -0.0176,-0.11209 h -2.259222 -3.72726 -2.334078 z m 0,0.80932 v 0.12734 h 3.483519 c -0.0022,0.15552 -0.0033,0.32917 -0.0033,0.54184 0,0.005 1.15e-4,0.009 1.28e-4,0.0133 h 1.90554 c -3e-6,-10e-4 0,-0.002 0,-0.003 0,-0.21642 0.0045,-0.39715 0.0148,-0.55141 h 4.664423 c 0.005,0.14956 0.006,0.31999 0.006,0.51447 0,0.0146 -3.2e-4,0.0269 -3.8e-4,0.0407 h 1.87718 c -8.4e-4,-0.26061 -0.005,-0.48713 -0.0102,-0.68248 h -1.87992 -4.647015 -1.925311 z m 0,0.80983 v 0.12734 h 3.481903 c 0.0015,0.2081 0.0056,0.3889 0.01133,0.55464 h 1.930535 c -0.0192,-0.14999 -0.03032,-0.33204 -0.03482,-0.55464 h 4.679342 c -0.004,0.22858 -0.0149,0.40841 -0.0343,0.55464 h 1.89969 c 0.0102,-0.20491 0.015,-0.42985 0.015,-0.68198 h -1.87904 -4.682084 -1.906286 z m 23.03883,0.49158 h 3.32807 c 0.41832,0 0.49283,0.009 0.60426,0.0465 0.20438,0.0745 0.31587,0.26031 0.31587,0.52964 0,0.26041 -0.11141,0.44642 -0.29734,0.51136 -0.12098,0.0369 -0.19489,0.0465 -0.57628,0.0465 h -3.37458 z M 90,302.07376 v 0.12734 h 3.504287 c 0.01292,0.21743 0.03203,0.39883 0.05957,0.55513 h 2.57272 c -0.215573,-0.0365 -0.335103,-0.0936 -0.443709,-0.18206 -0.101694,-0.0856 -0.173145,-0.19767 -0.221357,-0.37307 h 4.50997 c -0.03274,0.10654 -0.07613,0.18924 -0.133436,0.26164 -0.110636,0.15425 -0.255874,0.24324 -0.595302,0.29349 h 2.590877 c 0.0397,-0.1948 0.0662,-0.42014 0.0828,-0.68247 h -1.91312 -4.57016 -1.945707 z m 0,0.80981 v 0.12734 h 3.622054 c 0.04041,0.13808 0.09123,0.25974 0.155572,0.38079 0.03144,0.0615 0.06632,0.1193 0.10421,0.17386 h 7.612084 c 0.14541,-0.1808 0.24924,-0.39789 0.32034,-0.68199 h -8.225163 z m 0,0.80933 v 0.12734 h 4.111154 c 0.234801,0.20046 0.553566,0.332 0.986409,0.40815 0.371841,0.0745 1.125003,0.10245 2.602814,0.10245 0.604241,0 1.431348,-0.009 1.766259,-0.028 0.901584,-0.0369 1.422394,-0.18598 1.794244,-0.5018 0.042,-0.0347 0.0809,-0.0711 0.11839,-0.10823 h -7.397946 z"
     id="path8"
     inkscape:connector-curvature="0" />
</svg>
